<mxfile host="65bd71144e">
    <diagram id="7-TN6aLMnJ0QVNmEgeEL" name="PÃ¡gina-1">
        <mxGraphModel dx="877" dy="375" grid="1" gridSize="10" guides="1" tooltips="1" connect="1" arrows="1" fold="1" page="1" pageScale="1" pageWidth="827" pageHeight="1169" math="0" shadow="0">
            <root>
                <mxCell id="0"/>
                <mxCell id="1" parent="0"/>
                <mxCell id="2" value="" style="rounded=0;whiteSpace=wrap;html=1;" vertex="1" parent="1">
                    <mxGeometry x="110" y="80" width="500" height="240" as="geometry"/>
                </mxCell>
                <mxCell id="3" value="COMPUTADOR" style="text;html=1;align=center;verticalAlign=middle;resizable=0;points=[];autosize=1;strokeColor=none;fillColor=none;" vertex="1" parent="1">
                    <mxGeometry x="110" y="50" width="110" height="30" as="geometry"/>
                </mxCell>
                <mxCell id="4" value="CONTAINER&lt;br&gt;8080&lt;br&gt;8081&lt;br&gt;3306" style="rounded=0;whiteSpace=wrap;html=1;" vertex="1" parent="1">
                    <mxGeometry x="230" y="130" width="120" height="60" as="geometry"/>
                </mxCell>
                <mxCell id="5" value="8080&lt;br&gt;8081&lt;br&gt;3306&lt;br&gt;4200 =&amp;gt; 3306" style="text;html=1;align=center;verticalAlign=middle;resizable=0;points=[];autosize=1;strokeColor=none;fillColor=none;" vertex="1" parent="1">
                    <mxGeometry x="110" y="110" width="100" height="70" as="geometry"/>
                </mxCell>
            </root>
        </mxGraphModel>
    </diagram>
</mxfile>